# xmcd
#
# Track frame offsets: 
#        150
#        14518
#        27636
#        39532
#        53726
#        65258
#        79754
#        93243
#        107575
#        122519
#        136582
#        149883
#        163310
#        174761
#        187229
#        201898
#        216041
#        230457
#        245763
#        257390
#        271705
#        280426
#        293412
#        308131
#        321963
#
# Disc length: 4470 seconds
#
# Revision: 0
# Processed by: cddbd v1.5.2PL0 Copyright (c) Steve Scherf et al.
# Submitted via: ExactAudioCopyFreeDBPlugin 1.0
#
DISCID=6b117419
DTITLE=Various Artist - The Rough Guide to Bottleneck Blues: Reborn a
DTITLE=nd Remastered
DYEAR=2015
DGENRE=Blues
TTITLE0=Blind Willie Johnson - It's Nobody's Fault But Mine
TTITLE1=Weaver And Beasley - Bottleneck Blues
TTITLE2=Bukka White - Bukka's Jitterbug Swing
TTITLE3=Curley Weaver - No No Blues
TTITLE4=Casey Bill Weldon - Has My Gal Been Here
TTITLE5=Barbecue Bob - It's Just Too Bad
TTITLE6=Darby And Tarleton - Sweet Sarah Blues
TTITLE7=Gus Cannon - Poor Boy, Long Ways From Home
TTITLE8=Gitfiddle Jim - Paddlin' Blues
TTITLE9=Bayless Rose - Frisco Blues
TTITLE10=Oscar Woods - Don't Sell It - Don't Give It Away
TTITLE11=Leadbelly - C.C. Rider
TTITLE12=Jim And Bob (The Genial Hawaiians) - The Hula Blues
TTITLE13=Rev. Edward W. Clayborn - You Never Will Know Who Is Your Fri
TTITLE13=end
TTITLE14=Tampa Red - The Dirty Dozen No. 2
TTITLE15=Son House - Dry Spell Blues - Part 1
TTITLE16=Lemuel Turner - Jake Bottle Blues
TTITLE17=King Solomon Hill - Tell Me Baby
TTITLE18=Black Ace - You Gonna Need My Help Some Day
TTITLE19=Bo Weavil Jackson - You Can't Keep No Brown
TTITLE20=Blind Willie Davis - When The Saints Go Marching In
TTITLE21=Furry Lewis - John Henry (The Streel Driving Man) - Part 1
TTITLE22=Blind Willie (Joe) Reynolds - Married Man Blues
TTITLE23=Charley Patton - Prayer Of Death - Part 1
TTITLE24=Bobby Grant - Lonesome Atlanta Blues
EXTD=
EXTT0=
EXTT1=
EXTT2=
EXTT3=
EXTT4=
EXTT5=
EXTT6=
EXTT7=
EXTT8=
EXTT9=
EXTT10=
EXTT11=
EXTT12=
EXTT13=
EXTT14=
EXTT15=
EXTT16=
EXTT17=
EXTT18=
EXTT19=
EXTT20=
EXTT21=
EXTT22=
EXTT23=
EXTT24=
PLAYORDER=
